<?xml version="1.0" standalone="no"?>
<!DOCTYPE svg PUBLIC "-//W3C//DTD SVG 20010904//EN"
 "http://www.w3.org/TR/2001/REC-SVG-20010904/DTD/svg10.dtd">
<svg version="1.0" xmlns="http://www.w3.org/2000/svg"
 width="500.000000pt" height="500.000000pt" viewBox="0 0 500.000000 500.000000"
 preserveAspectRatio="xMidYMid meet">

<g transform="translate(0.000000,500.000000) scale(0.100000,-0.100000)"
fill="#000000" stroke="none">
<path d="M2090 3783 c0 -37 42 -123 60 -123 16 0 11 87 -7 125 -23 49 -53 48
-53 -2z"/>
<path d="M2766 3784 c-9 -23 -7 -64 3 -64 9 0 21 34 21 63 0 21 -16 22 -24 1z"/>
<path d="M3086 3687 c-14 -15 -26 -34 -26 -43 0 -15 2 -15 21 2 25 22 43 54
35 61 -2 3 -16 -6 -30 -20z"/>
<path d="M1754 3635 c-10 -25 16 -82 56 -127 l39 -43 1 31 c1 85 -75 195 -96
139z"/>
<path d="M3369 3498 c-30 -17 -95 -96 -86 -104 10 -11 95 25 123 51 38 37 42
50 16 64 -13 7 -28 4 -53 -11z"/>
<path d="M1493 3429 c-24 -24 29 -104 90 -135 27 -15 28 -15 21 13 -13 53 -25
78 -52 106 -28 29 -42 33 -59 16z"/>
<path d="M3565 3231 c-22 -10 -53 -33 -69 -50 l-30 -31 35 0 c50 0 144 49 144
75 0 27 -30 29 -80 6z"/>
<path d="M1296 3107 c5 -14 63 -52 69 -45 6 6 -19 34 -42 46 -28 15 -34 15
-27 -1z"/>
<path d="M2202 3103 c-16 -29 -514 -1186 -520 -1206 -4 -16 2 -18 58 -15 l63
3 70 163 69 162 119 0 119 0 0 60 0 60 -94 0 -94 0 135 316 c75 173 139 312
144 307 4 -4 66 -145 137 -313 l130 -305 -104 -3 -104 -3 0 -59 0 -59 131 -3
131 -3 67 -160 68 -160 66 -3 c37 -2 67 -1 67 2 0 3 -119 281 -264 618 l-264
613 -60 3 c-50 2 -62 0 -70 -15z"/>
<path d="M2441 3103 c2 -4 12 -29 22 -55 l19 -46 241 -4 c225 -3 245 -5 292
-26 63 -29 84 -48 106 -97 38 -82 15 -193 -51 -248 -60 -51 -94 -60 -248 -65
-127 -4 -143 -6 -137 -21 3 -9 13 -35 23 -58 l17 -41 150 -4 c130 -3 156 -6
200 -26 94 -43 128 -94 128 -187 0 -107 -55 -177 -169 -211 -26 -8 -62 -14
-81 -14 -18 0 -33 -2 -33 -5 0 -2 11 -29 24 -59 l24 -54 70 13 c184 35 292
153 292 319 0 137 -67 230 -207 285 -47 18 -47 18 -22 31 105 55 162 150 163
270 0 134 -66 231 -193 282 -53 22 -72 23 -345 26 -158 2 -286 -1 -285 -5z"/>
<path d="M3709 2890 c-19 -10 -41 -26 -48 -34 -12 -14 -8 -16 35 -16 56 0 117
27 122 53 3 14 -4 17 -35 17 -21 -1 -54 -9 -74 -20z"/>
<path d="M1205 2790 c-7 -11 27 -30 54 -30 12 0 21 5 21 10 0 6 -1 10 -3 10
-1 0 -17 4 -34 9 -19 6 -35 6 -38 1z"/>
<path d="M3724 2225 c21 -16 76 -20 76 -6 0 10 -35 21 -70 21 -24 -1 -24 -1
-6 -15z"/>
<path d="M1213 2145 c-22 -9 -33 -21 -33 -35 0 -38 82 -23 143 27 l29 23 -54
0 c-29 -1 -68 -7 -85 -15z"/>
<path d="M3636 1927 c6 -15 64 -52 64 -40 0 14 -14 30 -37 42 -28 14 -34 14
-27 -2z"/>
<path d="M1472 1849 c-78 -15 -141 -64 -115 -90 14 -14 61 0 115 36 34 23 69
66 51 64 -4 -1 -28 -5 -51 -10z"/>
<path d="M3395 1688 c15 -68 69 -136 99 -125 41 16 -8 108 -76 143 l-30 16 7
-34z"/>
<path d="M1645 1591 c-80 -37 -110 -101 -49 -101 19 0 40 13 71 45 66 69 57
92 -22 56z"/>
<path d="M3152 1483 c8 -83 73 -166 92 -117 9 23 -31 107 -66 140 l-30 29 4
-52z"/>
<path d="M1900 1339 c-12 -16 -19 -33 -15 -37 7 -8 55 43 55 59 0 18 -19 8
-40 -22z"/>
<path d="M2840 1302 c0 -63 25 -124 49 -120 35 7 21 88 -24 143 l-24 30 -1
-53z"/>
<path d="M2212 1248 c-5 -18 -7 -37 -4 -42 8 -14 32 25 32 51 0 34 -18 28 -28
-9z"/>
</g>
</svg>
